<svg width="81" height="19" viewBox="0 0 81 19" fill="none" xmlns="http://www.w3.org/2000/svg">
<path d="M1.044 8.96431C1.948 8.57097 3.03533 8.37431 4.30734 8.37431C5.57467 8.37431 6.668 8.62031 7.58734 9.11164C8.50734 9.60364 8.96667 10.339 8.96667 11.3183C8.96667 12.3996 8.47734 13.2116 7.5 13.755C6.52134 14.2976 5.44534 14.5683 4.272 14.5683C3.09867 14.5683 2.12 14.3483 1.338 13.9083C0.554668 13.4636 0.164668 12.7196 0.164668 11.6783C0.164668 11.0683 0.359335 10.6123 0.751335 10.3096C1.142 10.003 1.788 9.84964 2.68733 9.84964C3.274 9.84964 3.81267 9.94497 4.30133 10.135C4.79067 10.3263 5.03467 10.6376 5.03467 11.071C5.03467 11.503 4.75733 11.8256 4.20133 12.0376C3.95467 12.1323 3.69133 12.1796 3.40933 12.1796C3.04533 12.1796 2.65267 12.103 2.22933 11.9496C1.764 11.7643 1.526 11.4576 1.514 11.0296C1.20067 11.0296 1.04467 11.2456 1.04467 11.6783C1.04467 11.9143 1.22933 12.1503 1.59867 12.3863C1.96867 12.6223 2.54667 12.7396 3.33267 12.7396C4.38933 12.7396 5.25 12.6183 5.91534 12.3743C6.58 12.1263 6.91267 11.757 6.91267 11.2656C6.91267 10.597 6.498 10.097 5.66867 9.76697C4.83933 9.43231 4.01 9.26564 3.18067 9.26564C2.35067 9.26564 1.724 9.32431 1.29933 9.44231C0.90178 9.54903 0.520042 9.70773 0.164001 9.91431V7.54831C0.164001 7.27697 0.473335 6.90364 1.09067 6.42764C1.70533 5.95564 2.18667 5.71964 2.53467 5.71964C2.87867 5.71964 3.32133 5.89631 3.86133 6.25031C4.39667 6.60431 4.75733 6.78164 4.94133 6.78164C5.12467 6.78164 5.428 6.60431 5.85067 6.25031C6.27267 5.89697 6.60934 5.71964 6.86 5.71964C7.10667 5.71964 7.50134 5.86631 8.04534 6.16231C8.58934 6.45697 9.092 6.60431 9.55334 6.60431C9.13134 7.66631 8.67134 8.19764 8.17467 8.19764C7.756 8.19764 7.27534 8.05964 6.734 7.78431C6.192 7.50897 5.84267 7.37097 5.686 7.37097C5.526 7.37097 5.25467 7.52431 4.87334 7.83097C4.492 8.13764 4.178 8.29164 3.93133 8.29164C3.68133 8.29164 3.32733 8.15964 2.86933 7.89631C2.41133 7.63297 2.10667 7.50097 1.954 7.50097C1.79733 7.50097 1.594 7.59964 1.344 7.79631C1.136 7.96164 1.03267 8.25831 1.03267 8.68697C1.03267 8.77364 1.036 8.86631 1.044 8.96431ZM5.59 0.999641C6.486 0.999641 7.268 1.29497 7.93734 1.88497C8.61067 2.47497 9.058 3.26164 9.28134 4.24497C9.28134 4.44164 8.94667 4.53964 8.278 4.53964C7.18667 4.34297 6.25734 4.24497 5.49067 4.24497C4.87667 4.24497 4.244 4.34297 3.59467 4.53964C3.13333 4.53964 2.79267 4.41031 2.574 4.15031C2.35067 3.89497 2.23933 3.64497 2.23933 3.40097C2.23933 2.78364 2.51933 2.22897 3.07867 1.73697C3.638 1.24631 4.47467 0.999641 5.59 0.999641ZM4.028 3.48364C4.5106 3.40003 4.99955 3.35854 5.48934 3.35964C6.25267 3.35964 7.12467 3.46231 8.10667 3.66631C8.01667 3.37964 7.74467 3.10897 7.29134 2.85497C6.838 2.60164 6.274 2.47497 5.60134 2.47497C5.112 2.47497 4.728 2.57431 4.448 2.77297C4.168 2.97164 4.028 3.20831 4.028 3.48364ZM13.8093 8.78164C13.4114 8.59192 12.9663 8.52419 12.53 8.58697V7.13564C13.7627 6.19164 14.5527 5.71964 14.9007 5.71964C15.2453 5.71964 15.6873 5.89631 16.2273 6.25031C16.7627 6.60431 17.1233 6.78164 17.3073 6.78164C17.4907 6.78164 17.794 6.60431 18.2167 6.25031C18.6387 5.89697 18.9753 5.71964 19.226 5.71964C19.4727 5.71964 19.8673 5.86631 20.4113 6.16231C20.9553 6.45697 21.458 6.60431 21.9193 6.60431C21.4973 7.66631 21.0373 8.19764 20.5407 8.19764C20.122 8.19764 19.6413 8.05964 19.1 7.78431C18.558 7.50897 18.2087 7.37097 18.052 7.37097C17.892 7.37097 17.6207 7.52431 17.2393 7.83097C16.858 8.13764 16.544 8.29164 16.2973 8.29164C16.0473 8.29164 15.656 8.12631 15.124 7.79631C14.5913 7.46564 14.2493 7.30031 14.0973 7.30031C13.9407 7.30031 13.7253 7.37497 13.4513 7.52431C13.858 7.55631 14.338 7.84497 14.8893 8.39164L13.8093 8.78164ZM14.006 8.79631C14.6573 8.47564 15.5247 8.31564 16.608 8.31564C17.692 8.31564 19.2667 8.47297 21.3327 8.78697V13.743C20.8633 14.2936 20.4713 14.569 20.1593 14.569C19.5287 14.569 18.9813 14.2663 18.5153 13.6603C18.046 13.0583 17.8113 12.477 17.8113 11.9136C18.6247 11.8356 19.5387 11.4756 20.5513 10.8343C18.7093 10.5316 17.2987 10.3803 16.3207 10.3803C15.3387 10.3803 14.5593 10.5376 13.9827 10.8523C13.4053 11.167 13.1167 11.4816 13.1167 11.7963C13.1167 12.3076 13.408 12.599 13.9913 12.6696C14.198 12.099 14.4947 11.683 14.88 11.4216C15.2653 11.1603 15.6533 11.029 16.0447 11.029C16.5147 11.029 16.89 11.1803 17.1713 11.483C17.356 11.6843 17.4473 11.9023 17.4473 12.1383C17.4473 12.2603 17.424 12.3863 17.3773 12.5156C17.232 12.901 17.0327 13.0936 16.7787 13.0936C16.52 13.0936 16.3127 13.007 16.1567 12.8336C16.0837 12.752 15.994 12.6872 15.8937 12.6434C15.7934 12.5997 15.6848 12.5782 15.5753 12.5803H15.5693C15.3307 12.5843 15.176 12.699 15.106 12.923C15.0942 12.9771 15.0882 13.0323 15.088 13.0876C15.088 13.3316 15.2193 13.5563 15.4813 13.761C15.2313 14.2996 14.8107 14.569 14.22 14.569C13.6407 14.569 13.214 14.4056 12.94 14.079C12.6667 13.7523 12.5293 13.3276 12.5293 12.805V10.2623C12.8446 9.62269 13.3643 9.10654 14.006 8.79564V8.79631ZM20.564 12.1736C20.6847 12.1736 20.7453 12.087 20.7453 11.9136V11.2236C20.5891 11.3716 20.4306 11.5172 20.27 11.6603C20.2482 11.677 20.2306 11.6985 20.2184 11.7231C20.2063 11.7478 20.2 11.7749 20.2 11.8023C20.2 11.853 20.2193 11.9103 20.2587 11.973C20.3367 12.107 20.4387 12.1736 20.564 12.1736ZM21.5 0.698975C21.9893 0.698975 22.2333 1.00364 22.2333 1.61364C22.2333 2.20697 22.03 3.04697 21.6233 4.13297L21.6467 4.24497C21.6467 4.44164 21.3127 4.53964 20.6433 4.53964C19.552 4.34297 18.6233 4.24497 17.8567 4.24497C17.242 4.24497 16.61 4.34297 15.9607 4.53964C15.4987 4.53964 15.1587 4.41031 14.9393 4.15031C14.7167 3.89497 14.6053 3.64497 14.6053 3.40097C14.6053 2.78364 14.8853 2.22897 15.444 1.73697C16.004 1.24564 16.802 0.999641 17.8387 0.999641C18.4607 0.999641 19.1967 1.29497 20.0453 1.88497C20.4127 2.14497 20.724 2.43964 20.9787 2.76964C21.2253 2.76231 21.35 2.56564 21.354 2.17964C21.354 1.97964 21.156 1.78097 20.7607 1.58431C20.7607 0.994308 21.0053 0.698975 21.494 0.698975H21.5ZM16.3947 3.48364C16.8773 3.40003 17.3662 3.35854 17.856 3.35964C18.6187 3.35964 19.4913 3.46231 20.4733 3.66631C20.3833 3.37964 20.0433 3.10897 19.452 2.85497C18.8613 2.60164 18.3273 2.47497 17.85 2.47497C17.4393 2.47497 17.094 2.57431 16.814 2.77297C16.534 2.97164 16.3947 3.20831 16.3947 3.48364ZM33.692 8.46297C33.696 8.51831 33.6987 8.57164 33.6987 8.62231C33.6987 9.18097 33.5047 9.68231 33.1173 10.127C32.73 10.571 32.1687 10.7936 31.4333 10.7936C30.244 10.7936 29.6493 10.3903 29.6493 9.58431C29.6493 8.77764 30.0227 8.37431 30.77 8.37431H30.7933C31.2907 8.37431 31.6347 8.51031 31.8267 8.78097C31.8226 8.80834 31.8206 8.83598 31.8207 8.86364C31.8207 9.11164 31.9807 9.23964 32.302 9.24764H32.3367C32.662 9.24764 32.824 9.14364 32.824 8.93431C32.824 8.55364 32.5073 8.22697 31.8733 7.95564C31.24 7.68431 30.4847 7.54897 29.608 7.54897C28.47 7.54897 27.6393 7.65364 27.1173 7.86431C26.5947 8.07497 26.152 8.30164 25.788 8.54564C25.98 8.49431 26.1753 8.46897 26.3747 8.46897C26.68 8.46897 26.9947 8.52964 27.32 8.65164C27.86 8.85631 28.2253 9.15697 28.4173 9.55431V11.0296C28.7693 11.0296 29.082 11.1316 29.356 11.3363C29.626 11.545 29.8413 11.8203 30.002 12.1623C30.158 12.509 30.5067 12.681 31.046 12.681C31.6993 12.681 32.2267 12.5276 32.628 12.221C33.0287 11.9143 33.386 11.3383 33.6987 10.4923C33.6987 11.9283 33.4447 12.9663 32.936 13.607C32.4273 14.2483 31.8307 14.569 31.146 14.569C29.914 14.569 29.2273 13.9356 29.086 12.669C28.9533 12.1663 28.7307 11.9143 28.4173 11.9143V13.743C27.948 14.2936 27.5573 14.5696 27.244 14.5696C26.614 14.5696 26.066 14.2663 25.6007 13.661C25.1313 13.059 24.8967 12.477 24.8967 11.9143C25.4753 11.3243 26.1307 11.0296 26.8627 11.0296H27.6667C27.5698 10.81 27.3936 10.635 27.1733 10.5396C27.0093 10.473 26.802 10.4396 26.5513 10.4396C26.1247 10.4396 25.5733 10.5383 24.8967 10.7343V7.98497C25.2487 7.41897 25.8053 6.89964 26.566 6.42764C27.3267 5.95564 28.3327 5.71964 29.5853 5.71964C30.724 5.71964 31.694 6.02497 32.496 6.63431C33.024 7.03564 33.378 7.45831 33.558 7.90297C33.71 7.445 33.9448 7.01883 34.2507 6.64564C34.744 6.02831 35.1953 5.71964 35.606 5.71964C36.252 5.71964 36.9267 5.96164 37.6307 6.44631C38.3347 6.92897 38.6873 7.37564 38.6873 7.78497V13.3896C38.6873 13.6256 38.5693 13.8816 38.3347 14.1563C38.1 14.4316 37.826 14.5696 37.5133 14.5696C36.8833 14.5696 36.336 14.267 35.87 13.661C35.4007 13.059 35.166 12.5363 35.166 12.0916C35.166 11.8123 35.6547 11.537 36.6327 11.2656C37.6113 10.9943 38.1007 10.5363 38.1007 9.89164C38.1007 9.37564 37.7433 8.90631 37.0293 8.48097C36.3153 8.05631 35.6787 7.84364 35.1193 7.84364C34.7387 7.84364 34.2627 8.05031 33.692 8.46297ZM27.8293 12.2096V11.9143C27.5987 11.9143 27.44 11.9396 27.3547 11.991C27.308 12.0183 27.284 12.0556 27.284 12.103C27.284 12.1496 27.3033 12.205 27.3427 12.2683C27.4207 12.4016 27.5227 12.4683 27.648 12.4683C27.7693 12.4683 27.83 12.3823 27.83 12.209L27.8293 12.2096ZM37.9173 12.1736C38.0387 12.1736 38.0993 12.087 38.0993 11.9136V11.2236C37.8687 11.4403 37.71 11.5856 37.624 11.6603C37.6021 11.6769 37.5843 11.6984 37.572 11.723C37.5598 11.7477 37.5534 11.7748 37.5533 11.8023C37.5533 11.853 37.5733 11.9103 37.612 11.973C37.6907 12.107 37.792 12.1736 37.9173 12.1736ZM44.8693 11.9143V13.743C44.4 14.2936 44.0087 14.569 43.696 14.569C43.0653 14.569 42.518 14.2663 42.0527 13.6603C41.5833 13.0583 41.3487 12.477 41.3487 11.9136C41.9273 11.3243 42.582 11.029 43.314 11.029H44.118C44.021 10.8096 43.8448 10.6349 43.6247 10.5396C43.4607 10.473 43.2533 10.4396 43.0033 10.4396C42.5767 10.4396 42.0253 10.5376 41.3487 10.7343V7.98497C41.7007 7.41831 42.2567 6.89964 43.018 6.42764C43.778 5.95564 44.7847 5.71964 46.0367 5.71964C47.1753 5.71964 48.1453 6.02431 48.9473 6.63431C49.75 7.24364 50.1507 7.90631 50.1507 8.62231C50.1507 9.18097 49.9573 9.68231 49.57 10.127C49.1827 10.5716 48.6207 10.7936 47.8853 10.7936C46.696 10.7936 46.1013 10.3903 46.1013 9.58431C46.1013 8.77764 46.4747 8.37497 47.2227 8.37497H47.246C47.7427 8.37497 48.0873 8.51031 48.2793 8.78164C48.275 8.80899 48.2728 8.83662 48.2727 8.86431C48.2727 9.11231 48.4333 9.23964 48.754 9.24764H48.7893C49.114 9.24764 49.276 9.14364 49.276 8.93497C49.276 8.55364 48.96 8.22697 48.326 7.95564C47.6927 7.68431 46.9367 7.54897 46.0607 7.54897C44.922 7.54897 44.092 7.65431 43.5693 7.86431C43.0473 8.07497 42.604 8.30164 42.2407 8.54564C42.432 8.49431 42.6273 8.46897 42.8273 8.46897C43.1327 8.46897 43.4473 8.53031 43.772 8.65164C44.312 8.85631 44.678 9.15764 44.8693 9.55431V11.0296C45.222 11.0296 45.5347 11.1316 45.8087 11.3363C46.0787 11.545 46.294 11.8203 46.454 12.163C46.6107 12.5083 46.9587 12.6816 47.4987 12.6816C48.152 12.6816 48.6787 12.5283 49.08 12.2216C49.4813 11.915 49.8387 11.3383 50.1513 10.4923C50.1513 11.9283 49.8967 12.967 49.3887 13.6076C48.88 14.2483 48.2833 14.569 47.5987 14.569C46.3653 14.569 45.6793 13.9356 45.5387 12.6696C45.4053 12.1663 45.182 11.9143 44.8693 11.9143ZM44.2827 12.209V11.9143C44.0513 11.9143 43.8933 11.9396 43.8067 11.991C43.76 12.0183 43.7367 12.0556 43.7367 12.103C43.7367 12.1496 43.756 12.205 43.7953 12.2683C43.8733 12.4016 43.9753 12.4683 44.1007 12.4683C44.2213 12.4683 44.2827 12.3823 44.2827 12.209ZM49.2387 16.687C49.008 16.687 48.814 16.621 48.658 16.4896C48.5013 16.3576 48.4233 16.1263 48.4233 15.7963C48.4233 15.4656 48.518 15.229 48.7073 15.0856C48.8973 14.9416 49.172 14.8703 49.532 14.8703C49.9587 14.8703 50.2687 15.005 50.4627 15.2743C50.656 15.5436 50.7547 15.8316 50.7587 16.1383V17.3596C50.7587 17.741 50.6807 18.0596 50.524 18.3156C50.368 18.571 50.0567 18.699 49.5907 18.699C48.8087 18.699 48.388 18.0556 48.3293 16.7696C48.5993 17.0096 48.9493 17.1296 49.38 17.1296C49.4193 17.1296 49.462 17.1276 49.5093 17.123C49.994 17.0996 50.2367 16.8976 50.2367 16.5163C50.2367 16.2443 50.1587 16.109 50.002 16.109C49.998 16.3016 49.9273 16.4463 49.7907 16.5423C49.654 16.639 49.47 16.687 49.2387 16.687ZM56.9413 14.569C56.9413 15.0803 56.7067 15.4483 56.2373 15.6723C56.2373 16.089 56.5133 16.4016 57.0653 16.6103C57.6167 16.819 58.25 16.925 58.9667 16.929C60.2067 16.925 61.04 16.7423 61.4667 16.3803C61.8927 16.0143 62.1447 15.509 62.2233 14.8643C62.4187 14.8643 62.5167 15.0603 62.5167 15.4543C62.5167 16.241 62.1253 16.929 61.3433 17.519C60.56 18.109 59.5727 18.4043 58.3793 18.4043C56.8727 18.4043 55.76 18.1616 55.04 17.6783C54.3167 17.1943 53.874 16.3543 53.7133 15.159C55.2787 15.159 56.0613 14.687 56.0613 13.743V10.835C56.038 10.7323 55.9167 10.6336 55.6973 10.5396C55.5333 10.473 55.3393 10.4396 55.1167 10.4396C54.7367 10.4396 54.27 10.5376 53.714 10.7343V7.34764C53.714 7.04897 53.9173 6.70297 54.324 6.30964C54.7307 5.91631 55.0047 5.71964 55.146 5.71964C55.286 5.71964 55.5793 5.85297 56.0233 6.12097C56.4667 6.38831 56.8707 6.52164 57.2347 6.52164C56.918 7.59564 56.5953 8.13231 56.2667 8.13231C56.2612 8.13561 56.255 8.13766 56.2487 8.13831C55.924 8.13831 55.6447 8.06964 55.41 7.93164C55.2567 7.84497 55.114 7.80231 54.9813 7.80231C54.9089 7.80204 54.837 7.81609 54.77 7.84364C54.578 7.92231 54.4233 8.19697 54.306 8.66964C54.5567 8.55964 54.8127 8.50431 55.0753 8.50431C55.3253 8.50431 55.582 8.55364 55.844 8.65097C56.384 8.85564 56.7493 9.15764 56.9413 9.55431V14.569ZM60.662 8.66897H60.756C61.0493 8.66897 61.3367 8.72631 61.6187 8.84031C61.892 8.95031 62.108 9.10831 62.264 9.31231C63.192 8.49031 63.9527 8.07897 64.5473 8.07897C65.2747 8.07897 66.358 8.31564 67.798 8.78764V13.743C67.3287 14.2936 66.9373 14.569 66.6247 14.569C65.9947 14.569 65.4467 14.2663 64.9813 13.6603C64.512 13.0583 64.2773 12.477 64.2773 11.9136C65.0907 11.8356 66.004 11.4756 67.018 10.835C65.8013 10.3743 64.8993 10.1443 64.3127 10.1443C63.6882 10.142 63.0722 10.2897 62.5167 10.575V13.3896C62.5167 14.1763 61.93 14.5696 60.7567 14.5696C59.5827 14.5696 58.9953 13.9796 58.9953 12.7996V11.9143C59.3731 12.1137 59.7949 12.2152 60.222 12.2096C60.668 12.2096 61.0653 12.0956 61.4133 11.867C61.7027 11.6783 61.8713 11.3916 61.918 11.0056C61.8313 11.061 61.738 11.1083 61.6367 11.1476C61.3581 11.2649 61.0589 11.325 60.7567 11.3243C59.5827 11.3243 58.9953 10.8823 58.9953 9.99697C58.9953 9.21831 59.4513 8.78164 60.362 8.68764C59.9247 8.45164 59.5367 8.33364 59.2007 8.33364C59.1307 8.33364 59.062 8.33897 58.9953 8.35097V7.13564C60.228 6.19164 61.018 5.71964 61.366 5.71964C61.7107 5.71964 62.1527 5.89631 62.6927 6.25031C63.2287 6.60497 63.588 6.78164 63.7727 6.78164C63.9567 6.78164 64.2593 6.60497 64.682 6.25031C65.1047 5.89697 65.4413 5.71964 65.6913 5.71964C65.938 5.71964 66.3333 5.86697 66.8773 6.16231C67.4207 6.45697 67.9233 6.60431 68.3853 6.60431C67.9627 7.58764 67.5027 8.07964 67.006 8.07964C66.5873 8.07964 66.108 7.96097 65.568 7.72564C65.0247 7.48964 64.6747 7.37164 64.5173 7.37164C64.3573 7.37164 64.0873 7.53431 63.708 7.86097C63.3247 8.18764 63.0093 8.35031 62.7633 8.35031C62.5127 8.35031 62.1213 8.17564 61.59 7.82497C61.0567 7.47564 60.7147 7.30031 60.5627 7.30031C60.406 7.30031 60.1907 7.37497 59.9167 7.52431C60.3233 7.55631 60.7147 7.73697 61.09 8.06697L60.662 8.66897ZM67.0293 12.1736C67.1507 12.1736 67.2113 12.087 67.2113 11.9136V11.2236C67.0552 11.3717 66.8967 11.5172 66.736 11.6603C66.7141 11.6769 66.6963 11.6984 66.684 11.723C66.6718 11.7477 66.6654 11.7748 66.6653 11.8023C66.6653 11.853 66.6853 11.9103 66.724 11.973C66.8027 12.107 66.904 12.1736 67.0293 12.1736ZM71.3613 7.34764C71.3613 7.04897 71.6427 6.70297 72.2067 6.30964C72.77 5.91631 73.1373 5.71964 73.3093 5.71964C73.482 5.71964 73.79 5.83631 74.234 6.07031C74.678 6.30431 75.1833 6.45497 75.7507 6.52164C75.324 7.55631 74.9273 8.07364 74.5593 8.07364C74.554 8.07668 74.5481 8.0785 74.542 8.07897C74.178 8.07897 73.8593 8.01031 73.5853 7.87231C73.416 7.7876 73.2293 7.74333 73.04 7.74297C72.93 7.74297 72.8207 7.75697 72.7113 7.78431C72.402 7.86297 72.13 8.15831 71.8953 8.66964C72.3767 8.55964 72.8107 8.50431 73.198 8.50431C73.6327 8.50431 74.01 8.57297 74.3307 8.71097C74.9333 8.97364 75.234 9.51497 75.234 10.333C75.234 10.915 74.8433 11.4616 74.0607 11.973C74.1347 12.1696 74.3967 12.337 74.8473 12.4743C75.2967 12.6123 75.8953 12.681 76.6427 12.681C77.4447 12.681 78.0853 12.563 78.5647 12.327C79.044 12.091 79.284 11.6976 79.284 11.147C79.284 10.931 79.0447 10.7276 78.5673 10.539C78.388 10.4723 78.1667 10.439 77.9047 10.439C77.466 10.439 76.9087 10.5376 76.232 10.7336V7.34764C76.232 7.04897 76.484 6.70297 76.9893 6.30964C77.494 5.91631 77.816 5.71964 77.9573 5.71964C78.0987 5.71964 78.41 5.85297 78.894 6.12097C79.3767 6.38831 79.796 6.52164 80.1527 6.52164C79.8433 7.59564 79.524 8.13231 79.196 8.13231C79.1905 8.13561 79.1844 8.13766 79.178 8.13831C78.8533 8.13831 78.554 8.06964 78.28 7.93164C78.1144 7.84777 77.9316 7.80349 77.746 7.80231C77.6407 7.80231 77.5367 7.81564 77.4353 7.84364C77.146 7.92231 76.9427 8.19697 76.8253 8.66964C77.236 8.53964 77.6133 8.47497 77.9573 8.47497C78.4507 8.47497 78.8787 8.60831 79.2427 8.87564C79.8573 9.32831 80.164 10.0436 80.164 11.0236C80.164 11.9476 79.7727 12.7703 78.99 13.489C78.208 14.209 77.152 14.569 75.8213 14.569C74.374 14.569 73.288 14.2983 72.5647 13.7576C71.8407 13.217 71.44 12.5043 71.3613 11.619C72.3 11.619 73.024 11.5356 73.5327 11.3683C74.0413 11.2016 74.2953 10.9836 74.2953 10.7163C74.2953 10.4883 74.0453 10.3736 73.5447 10.3736C73.47 10.3736 73.39 10.3763 73.304 10.3803C72.6427 10.4196 71.9953 10.537 71.3613 10.7336V7.34764ZM75.4633 10.2503C75.98 10.7263 76.4607 11.0036 76.9073 11.0823C77.3333 11.161 77.826 11.2003 78.386 11.2003H78.468C78.198 11.6916 77.7693 12.0003 77.1827 12.127C77.042 12.1536 76.8893 12.1676 76.7247 12.1676C76.1927 12.1676 75.52 12.021 74.706 11.7256C75.1487 11.3556 75.4007 10.8643 75.4633 10.2503Z" fill="#9CA3AF"/>
</svg>
